<?xml version="1.0" encoding="UTF-8"?>
<svg width="24" height="24" viewBox="0 0 24 24" fill="none" xmlns="http://www.w3.org/2000/svg">
  <path d="M4 2C3.44772 2 3 2.44772 3 3V21C3 21.5523 3.44772 22 4 22H20C20.5523 22 21 21.5523 21 21V3C21 2.44772 20.5523 2 20 2H4ZM5 4H19V20H5V4Z" fill="#2563EB"/>
  <path d="M7 6H17V10H7V6Z" fill="#2563EB"/>
  <path d="M7 12H9V14H7V12Z" fill="#2563EB"/>
  <path d="M11 12H13V14H11V12Z" fill="#2563EB"/>
  <path d="M15 12H17V14H15V12Z" fill="#2563EB"/>
  <path d="M7 16H9V18H7V16Z" fill="#2563EB"/>
  <path d="M11 16H13V18H11V16Z" fill="#2563EB"/>
  <path d="M15 16H17V18H15V16Z" fill="#2563EB"/>
</svg>